<svg id="visual" viewBox="0 0 960 540" width="960" height="540" xmlns="http://www.w3.org/2000/svg" xmlns:xlink="http://www.w3.org/1999/xlink" version="1.1"><rect x="0" y="0" width="960" height="540" fill="#001220"></rect><defs><linearGradient id="grad1_0" x1="43.8%" y1="0%" x2="100%" y2="100%"><stop offset="14.444444444444446%" stop-color="#001220" stop-opacity="1"></stop><stop offset="85.55555555555554%" stop-color="#001220" stop-opacity="1"></stop></linearGradient></defs><defs><linearGradient id="grad2_0" x1="0%" y1="0%" x2="56.3%" y2="100%"><stop offset="14.444444444444446%" stop-color="#001220" stop-opacity="1"></stop><stop offset="85.55555555555554%" stop-color="#001220" stop-opacity="1"></stop></linearGradient></defs><g transform="translate(960, 0)"><path d="M0 324C-55.7 314.3 -111.3 304.7 -161 278.9C-210.7 253.1 -254.4 211.2 -280.6 162C-306.8 112.8 -315.4 56.4 -324 0L0 0Z" fill="#FFD166"></path></g><g transform="translate(0, 540)"><path d="M0 -324C53 -309.7 106 -295.4 156 -270.2C206 -245 253.1 -208.9 280.6 -162C308.1 -115.1 316 -57.6 324 0L0 0Z" fill="#FFD166"></path></g></svg>